<svg width="150" height="150" viewBox="0 0 150 150" fill="none" xmlns="http://www.w3.org/2000/svg">
<g clip-path="url(#clip0_5_190)">
<path d="M58.6239 41.775L41.2636 41.4563L19.8163 107.231H33.5771L38.4139 91.6501H61.6235L67.0041 107.344H81.721L58.6239 41.775ZM41.9573 79.0688L50.1312 52.8188L58.1365 79.2938L41.9573 79.0688Z" fill="white"/>
<path d="M130.202 73.4814C129.298 68.5484 126.627 64.114 122.69 61.008C118.753 57.902 113.819 56.3372 108.811 56.6064C90.0637 56.6064 84.9456 73.5939 84.9456 82.6127C84.9456 91.6314 88.3952 107.944 108.061 108.525C122.572 108.956 125.684 104.55 125.684 104.55V94.7627C120.977 96.344 116.025 97.0741 111.061 96.9189C100 96.4877 98.8189 85.6689 98.8189 85.6689L130.202 85.9877V73.4814ZM98.5939 76.5939C98.5939 76.5939 100.637 67.6689 108.586 67.6689C116.535 67.6689 117.079 76.5939 117.079 76.5939H98.5939Z" fill="white"/>
<path d="M125.009 5.625C130.144 5.62996 135.067 7.67219 138.698 11.3035C142.329 14.9347 144.371 19.8584 144.376 24.9937V125.006C144.371 130.142 142.329 135.065 138.698 138.697C135.067 142.328 130.144 144.37 125.009 144.375H24.9906C19.8591 144.365 14.9409 142.321 11.3142 138.69C7.68739 135.059 5.648 130.138 5.64305 125.006V24.9937C5.648 19.8616 7.68739 14.9408 11.3142 11.3101C14.9409 7.67934 19.8591 5.63492 24.9906 5.625H125.009ZM125.009 0H24.9906C18.3659 0.00497037 12.0143 2.64043 7.3317 7.32713C2.64911 12.0138 0.0187474 18.3682 0.0187492 24.9937L0.0187492 125.006C0.0187474 131.632 2.64911 137.986 7.3317 142.673C12.0143 147.36 18.3659 149.995 24.9906 150H125.009C131.637 150 137.994 147.367 142.68 142.68C147.367 137.992 150 131.635 150 125.006V24.9937C150 18.365 147.367 12.0077 142.68 7.3205C137.994 2.63326 131.637 0 125.009 0V0Z" fill="white"/>
</g>
<defs>
<clipPath id="clip0_5_190">
<rect width="150" height="150" fill="white"/>
</clipPath>
</defs>
</svg>
