<svg width="151" height="150" viewBox="0 0 151 150" fill="none" xmlns="http://www.w3.org/2000/svg">
<g clip-path="url(#clip0_5_196)">
<path d="M72.1312 41.775L54.8437 41.4375L33.3375 107.231H47.1L51.9375 91.6312H75.15L80.5312 107.325H95.25L72.1312 41.775ZM55.4812 79.0687L63.6562 52.8187L71.6062 79.3688L55.4812 79.0687Z" fill="white"/>
<path d="M108.581 51.5625C113.065 51.5625 116.7 47.9276 116.7 43.4437C116.7 38.9598 113.065 35.325 108.581 35.325C104.097 35.325 100.462 38.9598 100.462 43.4437C100.462 47.9276 104.097 51.5625 108.581 51.5625Z" fill="white"/>
<path d="M115.725 56.2874H101.325V107.662H115.725V56.2874Z" fill="white"/>
<path d="M125.025 5.625C130.16 5.62996 135.084 7.67219 138.715 11.3035C142.347 14.9347 144.389 19.8584 144.394 24.9937V125.006C144.389 130.142 142.347 135.065 138.715 138.697C135.084 142.328 130.16 144.37 125.025 144.375H24.9937C19.8616 144.365 14.9428 142.321 11.3156 138.69C7.68834 135.059 5.64869 130.138 5.64374 125.006V24.9937C5.64869 19.8616 7.68834 14.9408 11.3156 11.3101C14.9428 7.67934 19.8616 5.63492 24.9937 5.625H125.025ZM125.025 0H24.9937C18.3682 0.00497037 12.0158 2.64043 7.33261 7.32713C2.64942 12.0138 0.0187359 18.3682 0.0187378 24.9937L0.0187378 125.006C0.0187359 131.632 2.64942 137.986 7.33261 142.673C12.0158 147.36 18.3682 149.995 24.9937 150H125.025C131.654 150 138.011 147.367 142.698 142.68C147.385 137.992 150.019 131.635 150.019 125.006V24.9937C150.019 18.365 147.385 12.0077 142.698 7.3205C138.011 2.63326 131.654 0 125.025 0V0Z" fill="white"/>
</g>
<defs>
<clipPath id="clip0_5_196">
<rect width="150.019" height="150" fill="white"/>
</clipPath>
</defs>
</svg>
