<svg width="151" height="150" viewBox="0 0 151 150" fill="none" xmlns="http://www.w3.org/2000/svg">
<g clip-path="url(#clip0_5_203)">
<path d="M88.4625 88.6123C95.5559 88.6123 101.306 82.862 101.306 75.7686C101.306 68.6751 95.5559 62.9248 88.4625 62.9248C81.3691 62.9248 75.6187 68.6751 75.6187 75.7686C75.6187 82.862 81.3691 88.6123 88.4625 88.6123Z" fill="white"/>
<path d="M75.6187 62.9062H93.3562C95.7436 61.8735 97.7704 60.1548 99.1792 57.9682C100.588 55.7816 101.315 53.2256 101.269 50.6249C101.349 47.7846 100.485 44.9978 98.8127 42.7008C97.14 40.4039 94.7529 38.7265 92.025 37.9312L60.0187 38.1937C60.0187 38.1937 50.25 40.7812 50.25 50.6249C50.25 60.4687 60.5625 62.7749 60.5625 62.7749C60.5625 62.7749 50.1375 65.7749 50.1375 75.6749C50.1375 85.5749 60.5625 88.4624 60.5625 88.4624C57.4486 89.2459 54.7047 91.0894 52.8023 93.6762C50.8999 96.2629 49.9576 99.4314 50.1375 102.637C50.1375 114.675 64.65 114.15 64.65 114.15C64.65 114.15 75.3937 110.625 75.3937 104.4C75.3937 98.1749 75.6187 62.9062 75.6187 62.9062Z" fill="white"/>
<path d="M125.025 5.625C130.16 5.62996 135.084 7.67219 138.715 11.3035C142.347 14.9347 144.389 19.8584 144.394 24.9937V125.006C144.389 130.142 142.347 135.065 138.715 138.697C135.084 142.328 130.16 144.37 125.025 144.375H24.9937C19.8616 144.365 14.9428 142.321 11.3156 138.69C7.68834 135.059 5.64869 130.138 5.64374 125.006V24.9937C5.64869 19.8616 7.68834 14.9408 11.3156 11.3101C14.9428 7.67934 19.8616 5.63492 24.9937 5.625H125.025ZM125.025 0H24.9937C18.3682 0.00497037 12.0158 2.64043 7.33261 7.32713C2.64942 12.0138 0.0187359 18.3682 0.0187378 24.9937L0.0187378 125.006C0.0187359 131.632 2.64942 137.986 7.33261 142.673C12.0158 147.36 18.3682 149.995 24.9937 150H125.025C131.654 150 138.011 147.367 142.698 142.68C147.385 137.992 150.019 131.635 150.019 125.006V24.9937C150.019 18.365 147.385 12.0077 142.698 7.3205C138.011 2.63326 131.654 0 125.025 0V0Z" fill="white"/>
</g>
<defs>
<clipPath id="clip0_5_203">
<rect width="150.019" height="150" fill="white"/>
</clipPath>
</defs>
</svg>
