<svg width="197" height="86" viewBox="0 0 197 86" fill="none" xmlns="http://www.w3.org/2000/svg">
<g clip-path="url(#clip0_7_76)">
<path d="M32.1739 71.9586C32.2946 72.0502 32.4773 72.1881 32.6524 72.3217C32.6084 72.5932 32.5687 72.8339 32.5408 73.0039C31.927 73.6903 31.203 73.9401 30.3667 73.7701C30.1352 74.2291 30.1003 74.2333 29.709 74.0213C28.9369 73.6015 28.1836 73.1383 27.3787 72.7989C25.6441 72.067 23.8453 71.6535 21.9335 71.6899C20.8217 71.7109 19.726 71.7921 18.624 71.9096C16.8629 72.0978 15.1582 72.5393 13.4626 73.0165C11.2 73.6539 9.07621 74.6202 6.99353 75.7103C5.38166 76.5549 3.9344 77.6429 2.39436 78.5903C1.59366 79.0801 0.835495 78.8625 0.296344 78.0592C-0.140278 77.4085 -0.048207 76.8264 0.264961 76.1854C0.509776 75.6859 0.70158 75.1604 0.908034 74.6461C1.81476 72.3672 3.01442 70.2443 4.39543 68.2264C5.3719 66.8032 6.54645 65.548 7.74332 64.3137C8.42127 63.614 9.1334 62.9444 9.75486 62.1993C10.6225 61.1588 11.0473 59.8903 11.3514 58.5909C11.6471 57.3238 11.8996 56.0462 12.1974 54.779C12.6975 52.6498 13.7465 50.8201 15.2168 49.2129C16.5769 47.7268 18.156 46.5198 19.8285 45.4185C22.3185 43.7777 25.0331 42.6771 27.9123 41.9431C30.7306 41.2257 33.6471 40.9766 36.5457 41.2057C37.8856 41.3127 39.2165 41.5123 40.529 41.8032C43.5819 42.4714 46.6054 42.3294 49.6381 41.701C52.8018 41.0461 55.8812 40.1036 58.9348 39.0597C62.0088 38.0187 65.0282 36.8217 67.9811 35.4731C70.6754 34.2339 73.3628 32.9759 76.0111 31.6436C78.2905 30.4968 80.5126 29.2374 82.7571 28.022C85.0804 26.7626 87.3912 25.4821 89.7256 24.2437C91.5914 23.2536 93.4669 22.2796 95.3676 21.3644C97.4335 20.3702 99.5182 19.4109 101.627 18.5097C103.204 17.8359 104.835 17.2873 106.439 16.6695C109.065 15.6577 111.779 14.9315 114.488 14.1989C115.225 13.9995 115.993 13.9015 116.754 13.8091C117.543 13.7126 118.176 14.2332 118.278 15.0084C118.288 15.1226 118.269 15.2375 118.22 15.3415C118.02 15.783 117.837 16.2371 117.584 16.6471C117.475 16.8255 117.23 16.9522 117.02 17.0298C116.063 17.386 115.097 17.7176 114.133 18.0542C113.239 18.3667 112.344 18.6762 111.447 18.9827C110.877 19.1772 110.301 19.3521 109.734 19.5557C108.428 20.0259 107.12 20.4926 105.824 20.9887C104.574 21.4666 103.333 21.9683 102.098 22.4812C101.417 22.761 100.753 23.0871 100.087 23.3998C98.8082 23.9988 97.5262 24.583 96.2645 25.2128C95.2183 25.7368 94.1951 26.3225 93.1572 26.8724C92.3816 27.2831 91.5921 27.6701 90.8193 28.0871C89.5164 28.7868 88.2233 29.5117 86.9225 30.2184C85.6217 30.9251 84.3307 31.6094 83.0382 32.3111C81.9264 32.915 80.83 33.5482 79.7078 34.1304C78.5018 34.7601 77.2777 35.352 76.0537 35.9426C74.3511 36.7647 72.6493 37.5889 70.9314 38.3761C69.5657 39.0023 68.1952 39.6271 66.7919 40.161C63.8053 41.2973 60.8103 42.414 57.7909 43.4573C56.2404 43.9925 54.6369 44.3795 53.048 44.7832C51.568 45.1596 50.0782 45.5046 48.58 45.8005C46.5734 46.1966 44.5388 46.3953 42.4994 46.1749C41.0047 46.0125 39.5246 45.711 38.0355 45.4752C35.8608 45.1136 33.6452 45.0712 31.4583 45.3492C28.3231 45.7607 25.3595 46.6787 22.6066 48.2558C21.1147 49.1115 19.7051 50.0666 18.5103 51.3253C17.2702 52.6309 16.45 54.1367 16.0747 55.9111C15.7315 57.5351 15.5516 59.1997 14.9999 60.7733C14.5723 61.9984 14.0799 63.2061 13.1864 64.1661C12.0872 65.3493 10.9113 66.4611 9.77997 67.6142C8.7205 68.6931 7.77332 69.8623 7.01376 71.1756C7.00679 71.1882 7.02562 71.2155 7.04794 71.2841C7.59616 71.0651 8.14438 70.8475 8.69051 70.6271C9.60839 70.2576 10.5039 69.828 11.4462 69.5265C13.4229 68.8925 15.3933 68.2453 17.4697 67.9556C18.7251 67.7807 19.9631 67.5575 21.2291 67.5169C23.823 67.4337 26.3534 67.7142 28.757 68.7848C29.9755 69.3221 30.9317 70.2031 31.8803 71.0945C32.0484 71.2526 32.0539 71.5829 32.1739 71.9586Z" fill="#C4C4C4"/>
<path d="M107.215 26.3903C107.176 25.995 107.141 25.6395 107.101 25.2358C107.014 25.2085 106.884 25.1798 106.763 25.1302C106.319 24.949 106.279 24.6558 106.579 24.3073C107.251 23.5279 108.132 23.0899 109.042 22.6791C111.197 21.7059 113.367 20.7704 115.603 20.0014C118.409 19.0365 121.183 17.9793 124 17.0389C127.627 15.8261 131.267 14.6583 134.922 13.5356C137.355 12.7848 139.812 12.1096 142.27 11.4428C146.206 10.375 150.147 9.32853 154.094 8.30325C156.16 7.76938 158.247 7.31458 160.326 6.8283C162.515 6.31542 164.702 5.78995 166.897 5.30156C168.885 4.85796 170.881 4.44794 172.878 4.04212C176.08 3.38674 179.284 2.73975 182.491 2.10117C184.425 1.71914 186.363 1.35459 188.307 1.01944C190.273 0.680089 192.245 0.373627 194.219 0.0825546C194.772 0.00536314 195.331 -0.0166685 195.887 0.0167833C196.773 0.0636627 197.266 0.985159 196.851 1.76602C196.699 2.05289 196.561 2.35865 196.351 2.59865C196.171 2.80508 195.939 2.95886 195.679 3.04365C194.655 3.34242 193.626 3.6342 192.585 3.86299C190.639 4.29121 188.685 4.68373 186.732 5.07346C184.486 5.52197 182.233 5.93339 179.99 6.39309C177.332 6.93815 174.681 7.5077 172.03 8.08355C169.063 8.72796 166.095 9.37098 163.137 10.0525C160.223 10.7242 157.316 11.4302 154.413 12.1474C152.161 12.7034 149.915 13.282 147.675 13.8833C145.618 14.4319 143.56 14.9916 141.52 15.5885C138.384 16.5004 135.254 17.4352 132.13 18.3928C130.028 19.0379 127.938 19.7222 125.853 20.4128C123.254 21.27 120.657 22.1313 118.071 23.0262C116.761 23.4796 115.47 23.9925 114.182 24.5095C112.485 25.1917 110.801 25.9054 109.111 26.6051C108.643 26.7989 108.178 26.8339 107.716 26.589C107.569 26.5149 107.413 26.4722 107.215 26.3903Z" fill="#C4C4C4"/>
<path d="M116.788 56.3106C116.225 56.8263 115.668 57.3161 115.137 57.8331C114.928 58.0431 114.729 58.0906 114.452 58.0102C113.827 57.8209 113.255 57.4851 112.784 57.0306C111.738 56.0552 111.05 54.8525 110.603 53.5041C110.229 52.3762 109.827 51.2546 109.524 50.1078C109.253 49.0765 109.13 48.0087 108.888 46.9662C108.23 44.1394 108.159 41.249 107.931 38.3754C107.912 38.1277 107.884 37.88 107.862 37.6057C107.12 38.0808 107.117 38.1746 107.776 39.4305C107.255 39.9441 107.201 40.7676 106.567 41.27C106.149 41.6003 105.746 41.6702 105.312 41.496C104.53 41.1839 103.968 40.6158 103.568 39.8636C103.046 38.884 103.104 37.9549 103.668 37.0173C104.156 36.1979 104.605 35.3583 105.318 34.6943C105.586 34.4445 105.784 34.1198 106.015 33.8323C106.099 33.722 106.192 33.6199 106.294 33.5272C106.805 33.0934 107.327 32.6729 107.834 32.237C108.392 31.7549 108.909 31.2084 109.508 30.7851C110.356 30.1897 111.265 29.6817 112.147 29.1359C112.226 29.0876 112.334 29.0596 112.38 28.9897C112.877 28.2333 113.75 28.0101 114.443 27.535C115.148 27.0522 115.931 26.6835 116.675 26.2588C117.027 26.058 117.322 25.7032 117.801 25.8634C117.83 25.8732 117.885 25.8292 117.919 25.7998C118.999 24.8692 120.356 24.583 121.668 24.2171C123.118 23.8133 124.61 23.8133 126.097 23.9946C126.394 24.0427 126.68 24.1451 126.94 24.2968C127.691 24.7013 128.324 25.2589 128.746 26.002C129.213 26.8262 129.633 27.6812 130.039 28.5356C130.138 28.7455 130.104 29.0191 130.127 29.264C130.133 29.3339 130.095 29.4102 130.118 29.4683C130.53 30.5304 130.275 31.5827 130.048 32.6246C129.973 32.9702 129.737 33.2795 129.588 33.6119C129.525 33.7518 129.428 33.94 129.472 34.0576C129.608 34.4144 129.416 34.6341 129.228 34.8741C129.039 35.1141 128.86 35.3541 128.679 35.5969C128.539 35.7823 128.424 35.9467 128.486 36.2266C128.532 36.4309 128.427 36.6786 128.354 36.8948C128.321 36.9893 128.169 37.1355 128.122 37.118C127.587 36.9235 127.498 37.3979 127.316 37.6708C126.988 38.1711 126.708 38.7042 126.401 39.2185C126.344 39.3144 126.248 39.385 126.175 39.4711C125.663 40.0677 125.152 40.665 124.64 41.263C124.377 41.5723 124.139 41.9074 123.848 42.1887C122.913 43.0948 121.956 43.9778 121.015 44.8776C120.696 45.182 120.425 45.5395 120.088 45.8187C119.663 46.1686 119.194 46.4687 118.74 46.7864C118.647 46.8522 118.516 46.8808 118.446 46.9641C117.577 48.0046 116.316 48.579 115.389 49.553C115.191 49.7629 114.831 49.8133 114.451 49.9763C114.767 50.7781 115.065 51.6052 115.417 52.4091C115.78 53.2404 116.203 54.045 116.583 54.8692C116.722 55.1792 116.89 55.4906 116.693 55.8635C116.639 55.9706 116.753 56.1637 116.788 56.3106ZM113.529 45.7375L113.731 45.8264C113.763 45.7392 113.805 45.6563 113.857 45.5794C114.903 44.3633 115.9 43.1039 117.006 41.948C118.387 40.5059 119.824 39.1128 121.298 37.7652C122.875 36.3225 123.972 34.5606 124.913 32.6771C125.303 31.8941 125.48 31.0489 125.512 30.182C125.558 28.9659 124.704 28.1759 123.511 28.3711C122.444 28.5454 121.389 28.7973 120.336 29.0478C119.639 29.2143 118.945 29.4256 118.37 29.9C118.286 29.9699 118.156 29.9776 118.051 30.0245C117.38 30.3268 116.686 30.5892 116.045 30.946C115.051 31.4997 114.079 32.0905 113.127 32.7183C112.473 33.1622 111.846 33.6447 111.25 34.1632C110.733 34.6019 110.705 34.8321 111.143 35.3758C111.641 35.9957 111.848 36.6898 111.966 37.4616C112.258 39.3682 112.594 41.2686 112.943 43.1662C113.099 44.0303 113.331 44.8804 113.529 45.7375Z" fill="#C4C4C4"/>
<path d="M42.3663 77.8941C42.6272 78.8366 42.8985 79.7657 43.3867 80.6229C43.723 81.2085 44.0227 81.8144 44.2844 82.4372C44.4706 82.8871 44.804 83.3321 44.5334 83.8827C44.4929 83.9646 44.6136 84.1262 44.6589 84.2494C44.1191 84.7427 43.5771 85.1842 43.1042 85.69C42.7897 86.0273 42.464 86.0826 42.1117 85.8881C41.5879 85.5977 41.0425 85.3094 40.6003 84.9148C39.5722 83.9954 38.9187 82.8157 38.4862 81.5101C38.1201 80.4046 37.719 79.3068 37.424 78.1816C37.145 77.1321 37.0055 76.0392 36.76 74.9764C36.1022 72.1265 36.0199 69.2144 35.7933 66.3177C35.7772 66.1078 35.7598 65.8978 35.734 65.6928C35.7298 65.6544 35.6845 65.6229 35.6294 65.5466C35.3099 65.7565 35.0386 66.0322 35.1307 66.417C35.2081 66.7417 35.4543 67.0257 35.6496 67.3693C35.109 67.8941 35.0714 68.7337 34.4178 69.2165C33.9917 69.5334 33.5878 69.6223 33.1282 69.4299C32.3945 69.1241 31.8553 68.5938 31.4689 67.8941C30.9263 66.9145 30.92 65.9531 31.5128 64.984C32.0269 64.1528 32.4754 63.2866 33.2126 62.6107C33.4811 62.3637 33.6687 62.0299 33.901 61.7417C33.9891 61.6356 34.088 61.5389 34.196 61.4534C34.5545 61.1637 34.9305 60.8936 35.2771 60.5921C35.9565 59.9987 36.5877 59.3452 37.2998 58.7974C37.9373 58.3076 38.6557 57.9248 39.342 57.5008C39.8303 57.1979 40.3555 56.9411 40.6854 56.4345C40.7446 56.3336 40.8371 56.2566 40.9469 56.2169C41.6319 56.0686 42.095 55.5396 42.6816 55.2233C43.4746 54.7951 44.207 54.2179 45.0418 53.9156C45.5559 53.7302 45.9939 53.4517 46.4745 53.2334C48.7761 52.1902 51.1636 51.5716 53.7136 51.9278C54.1465 51.9895 54.5651 52.1281 54.9495 52.3371C55.829 52.8199 56.4547 53.5707 56.9199 54.4544C57.2212 55.0267 57.5818 55.583 57.7806 56.191C58.326 57.8605 58.3225 59.5495 57.7164 61.212C57.6711 61.3351 57.5428 61.4219 57.4737 61.5423C57.4046 61.6626 57.2882 61.8221 57.3244 61.9103C57.5288 62.4113 57.1752 62.6933 56.9366 63.0228C56.8139 63.1928 56.6869 63.3594 56.5579 63.5245C56.3975 63.7288 56.2789 63.9142 56.3487 64.2179C56.3947 64.4166 56.2712 64.6657 56.1869 64.8777C56.152 64.9645 55.9839 65.0876 55.9379 65.0659C55.5494 64.8791 55.4419 65.1933 55.3059 65.4158C54.9446 66.0049 54.6085 66.6052 54.2479 67.1986C54.1781 67.3105 54.0386 67.377 53.9521 67.4784C53.4709 68.0415 52.9931 68.6068 52.5188 69.1745C52.2586 69.4852 52.0306 69.8294 51.7453 70.11C50.8637 70.9727 49.9521 71.8032 49.0649 72.6555C48.6799 73.0242 48.3409 73.4454 47.9343 73.7869C47.5123 74.1416 47.0359 74.4313 46.5805 74.7462C46.5051 74.7979 46.3838 74.8098 46.3398 74.877C45.7379 75.8034 44.622 76.1162 43.9217 76.9271C43.7089 77.1758 43.4613 77.3921 43.1865 77.5694C42.9515 77.7205 42.6586 77.7835 42.3663 77.8941ZM41.4122 73.8065C41.5649 73.6777 41.627 73.6441 41.6639 73.5924C42.7548 72.0453 44.0312 70.6627 45.3948 69.3557C46.6537 68.1495 47.8687 66.8956 49.1542 65.7173C50.7319 64.2753 51.8297 62.5092 52.7713 60.6243C53.1633 59.8406 53.3293 58.9919 53.3704 58.1271C53.4241 56.9684 52.6444 56.2001 51.5005 56.3079C50.7215 56.3701 49.9499 56.5038 49.1953 56.7074C48.154 57.0048 47.0492 57.172 46.1634 57.8864C46.1132 57.9269 46.033 57.929 45.9695 57.9563C45.4192 58.1879 44.8438 58.3761 44.3248 58.6616C42.5749 59.6293 40.8437 60.6313 39.3072 61.9306C39.1619 62.0465 39.0281 62.176 38.9075 62.3175C38.6285 62.6674 38.609 62.8633 38.918 63.2229C39.4662 63.861 39.7138 64.5943 39.8247 65.4228C40.0339 66.9894 40.2788 68.5532 40.5696 70.1065C40.7956 71.3226 41.1136 72.512 41.4122 73.8065Z" fill="#C4C4C4"/>
<path d="M155.786 26.0587C156.205 26.5485 156.585 26.9872 156.951 27.4364C157.035 27.5378 157.138 27.6995 157.112 27.8023C156.961 28.3915 157.023 29.0387 156.501 29.525C155.754 30.2247 155.049 30.9684 154.358 31.722C154 32.111 153.712 32.5616 153.381 32.9815C153.24 33.1638 153.084 33.3342 152.914 33.4908C152.364 33.9925 151.799 34.4774 151.25 34.9791C150.671 35.5074 150.251 36.1413 150.049 36.9081C149.86 37.6204 149.984 37.7884 150.738 37.7625C151.507 37.7318 152.259 37.5276 152.938 37.1649C154.648 36.2735 156.373 35.4087 158.063 34.4795C158.81 34.0688 159.607 34.01 160.41 33.9162C160.547 33.9054 160.684 33.9395 160.8 34.0135C161.131 34.2339 161.427 35.231 161.249 35.6018C161.092 35.912 160.905 36.2056 160.689 36.4778C160.355 36.9172 159.931 37.2853 159.814 37.8772C159.774 38.0773 159.559 38.2648 159.384 38.4111C158.957 38.7686 158.505 39.0961 158.067 39.4403C157.648 39.7685 157.234 40.1022 156.818 40.4339C156.698 40.5437 156.571 40.6454 156.438 40.7383C155.666 41.1994 154.894 41.6591 154.111 42.102C153.913 42.2139 153.68 42.2678 153.46 42.3371C152.91 42.5092 152.367 42.7331 151.803 42.8317C150.671 43.0298 149.559 43.4328 148.379 43.2551C148.287 43.2521 148.195 43.2349 148.108 43.204C146.707 42.4784 145.447 41.6129 145.252 39.8643C145.173 39.1006 145.141 38.3328 145.154 37.5652C145.154 37.2524 145.27 36.9242 145.398 36.6311C146.246 34.6866 147.512 33.0178 148.904 31.4463C150.075 30.1239 151.25 28.7966 152.69 27.7484C153.159 27.407 153.607 27.0243 154.113 26.7472C154.618 26.4701 155.177 26.3022 155.786 26.0587Z" fill="#C4C4C4"/>
<path d="M83.7045 54.0751C84.0532 54.4879 84.4368 54.9259 84.8044 55.3744C84.8888 55.4766 84.9997 55.6347 84.9753 55.7369C84.8358 56.3302 84.8846 56.9774 84.3706 57.4623C83.6438 58.1487 82.9665 58.8883 82.2663 59.6041C81.8603 60.019 81.4377 60.415 81.2089 60.9762C81.1357 61.1553 80.9411 61.2896 80.7904 61.4289C80.1878 61.9767 79.5712 62.5092 78.977 63.0648C78.3899 63.6081 77.9948 64.3281 77.8512 65.1163C77.7675 65.5536 77.8512 65.6711 78.3011 65.697C79.1555 65.746 79.9625 65.5417 80.7193 65.1506C82.4546 64.2557 84.2018 63.3768 85.9134 62.4364C86.6611 62.0264 87.4548 61.9551 88.2597 61.8697C88.4185 61.8576 88.5763 61.9036 88.704 61.9991C89.1483 62.3644 89.2969 63.3586 88.983 63.8533C88.7954 64.1451 88.5596 64.4068 88.342 64.6797C88.0839 65.0043 87.7889 65.2919 87.7038 65.7397C87.6655 65.9447 87.4757 66.1455 87.3076 66.2995C86.945 66.6255 86.5544 66.9201 86.1722 67.2231C85.6463 67.6429 85.1169 68.0529 84.5889 68.4671C84.5005 68.5431 84.4073 68.6132 84.3099 68.677C83.5364 69.1339 82.7615 69.5901 81.9817 70.0372C81.8193 70.1277 81.6461 70.1971 81.4663 70.2436C80.3078 70.5564 79.1499 70.8734 77.9872 71.1651C75.5642 71.7809 73.3358 69.6958 73.1405 68.0333C73.0386 67.1811 72.9689 66.3093 73.0386 65.4584C73.0833 64.9036 73.3546 64.3438 73.6161 63.833C74.6331 61.8452 76.0385 60.1366 77.5534 58.5154C78.4427 57.5652 79.3355 56.6199 80.3754 55.8187C81.3554 55.0645 82.3207 54.3074 83.7045 54.0751Z" fill="#C4C4C4"/>
<path d="M179.269 30.4926C178.609 30.4129 177.981 30.3814 177.376 30.2471C177.006 30.1652 176.652 29.9553 176.325 29.7496C175.799 29.4193 175.301 29.045 174.746 28.658C174.573 28.9085 174.438 29.0905 174.317 29.2822C173.749 30.1918 173.179 31.0958 172.62 32.011C172.411 32.3559 172.092 32.6624 172.23 33.1501C172.262 33.262 172.124 33.4558 172.021 33.5699C171.677 33.9463 171.313 34.3046 170.931 34.6432C170.348 35.1421 169.719 35.5857 169.143 36.0923C168.721 36.4638 168.243 36.6408 167.705 36.7318C166.754 36.8934 165.805 36.8214 165.012 36.2973C163.923 35.5787 163.084 34.6005 162.989 33.211C162.934 32.4 162.984 31.5814 163.01 30.7662C163.029 30.1596 163.342 29.6558 163.667 29.1744C164.109 28.5209 164.57 27.8793 165.044 27.2489C165.358 26.8176 165.701 26.4078 166.069 26.0223C167.081 24.9959 168.113 23.9932 169.327 23.1934C169.971 22.7687 170.683 22.5868 171.397 22.4238C171.686 22.3538 172.083 22.521 172.358 22.6953C172.744 22.9388 173.07 23.2809 173.404 23.6C173.592 23.7798 173.773 23.847 174.032 23.7651C174.713 23.5468 175.304 23.7322 175.842 24.1849C177.194 25.3198 178.549 26.4526 179.915 27.57C180.44 27.9989 180.579 28.4691 180.274 29.0919C180.087 29.4739 180.087 29.9672 179.542 30.1008C179.441 30.1183 179.385 30.3128 179.269 30.4926ZM167.128 31.7423C167.524 31.7551 167.911 31.6256 168.219 31.3771C169.175 30.6592 170.027 29.8377 170.72 28.8582C171.172 28.2214 171.514 27.5287 171.852 26.7759C170.299 27.1285 167.536 30.0406 167.128 31.7423Z" fill="#C4C4C4"/>
<path d="M107.162 58.3782C106.764 58.3782 106.414 58.4125 106.073 58.3705C105.382 58.2859 104.706 58.1655 104.133 57.6911C103.673 57.3098 103.157 56.9984 102.624 56.629C102.476 56.8172 102.353 56.948 102.259 57.0978C101.617 58.124 100.978 59.1519 100.343 60.1813C100.178 60.4486 99.9451 60.6872 100.088 61.0685C100.128 61.1721 99.9995 61.3771 99.8977 61.4884C99.593 61.8384 99.2669 62.1691 98.9212 62.4784C98.3758 62.9493 97.7711 63.353 97.2473 63.8421C96.2359 64.7825 95.0551 64.8826 93.7996 64.6118C93.0359 64.4453 92.4186 64.052 91.8969 63.4167C91.1338 62.4868 90.7014 61.4968 90.8172 60.2821C90.854 59.84 90.8678 59.3962 90.8583 58.9527C90.8514 58.2383 91.1722 57.6491 91.5558 57.0887C91.9471 56.5135 92.3503 55.9447 92.7757 55.3947C93.1932 54.8388 93.6387 54.3047 94.1107 53.7945C95.0739 52.7835 96.0706 51.7913 97.2947 51.1035C97.9099 50.7579 98.6108 50.5402 99.2972 50.3534C99.6459 50.2583 100.034 50.3905 100.304 50.7033C100.389 50.8114 100.484 50.911 100.589 51.0006C101.139 51.4352 101.635 51.9515 102.477 51.6591C102.722 51.5737 103.134 51.7423 103.377 51.9214C104.93 53.0647 106.472 54.2234 107.844 55.5934C108.256 56.0049 108.422 56.3855 108.155 56.9424C107.951 57.3679 107.938 57.901 107.364 58.0746C107.268 58.1039 107.215 58.2894 107.162 58.3782ZM94.9651 59.6797C95.358 59.7163 95.7494 59.5967 96.0553 59.3466C97.4091 58.3229 98.5592 57.1223 99.3027 55.5683C99.4255 55.3115 99.5587 55.0603 99.717 54.7475C98.2056 55.0547 95.5475 57.8409 94.9651 59.6797Z" fill="#C4C4C4"/>
<path d="M143.63 44.8601C143.556 45.5521 143.095 46.0125 142.25 46.1896C142.228 46.1938 142.203 46.1896 142.18 46.1966C141.093 46.3799 141.003 46.3526 140.287 45.4703C139.478 44.4711 138.823 43.3929 138.426 42.1481C138.055 40.9748 137.557 39.8391 137.459 38.5944C137.412 37.9885 137.453 37.393 138.013 36.9809C138.303 36.7668 138.61 36.7143 138.927 36.8703C139.51 37.1572 140.125 37.4042 140.643 37.7841C141.038 38.0738 141.369 38.5062 141.608 38.9414C141.895 39.4662 142.067 40.0575 142.267 40.6277C142.643 41.7006 143.01 42.7781 143.368 43.8603C143.477 44.1884 143.544 44.5278 143.63 44.8601Z" fill="#C4C4C4"/>
<path d="M71.4763 72.7835C71.4024 73.5462 70.9225 74.0086 69.9977 74.1549C69.7919 74.1878 69.5792 74.1822 69.3748 74.2179C69.0421 74.2752 68.7917 74.1521 68.5748 73.9093C67.7657 73.0018 67.0111 72.053 66.5919 70.9027C66.0688 69.4648 65.4389 68.05 65.3141 66.4946C65.2646 65.8859 65.349 65.3002 65.9132 64.9C66.1922 64.7034 66.4712 64.6621 66.7621 64.8077C67.3633 65.1092 67.9945 65.3737 68.5357 65.762C68.9252 66.0531 69.2407 66.4324 69.4564 66.869C69.7724 67.5092 69.9684 68.2096 70.2069 68.8876C70.5466 69.8518 70.8855 70.8166 71.2113 71.7857C71.3208 72.1118 71.3891 72.4511 71.4763 72.7835Z" fill="#C4C4C4"/>
<path d="M136.97 31.9627C136.801 31.9053 136.641 31.8976 136.552 31.8136C136.118 31.3938 135.645 31.0055 135.493 30.3765C135.427 30.1057 135.342 29.8391 135.268 29.5697C135.035 28.7168 135.706 27.9443 136.532 28.2256C137.281 28.481 138.034 28.7854 138.637 29.3857C139.055 29.7985 139.002 30.3611 139.264 30.8152C139.386 31.0251 139.007 31.5317 138.637 31.6345C138.086 31.7898 137.511 31.8598 136.97 31.9627Z" fill="#C4C4C4"/>
<path d="M64.8083 59.9105C64.6611 59.8664 64.523 59.8664 64.4504 59.7972C64.032 59.3976 63.5688 59.031 63.3952 58.4405C63.3031 58.1284 63.211 57.8156 63.1266 57.5015C62.9013 56.6569 63.5925 55.8922 64.4093 56.184C65.226 56.4757 66.1125 56.7437 66.6224 57.5316C66.8623 57.9024 67.059 58.3467 67.1148 58.7791C67.1636 59.1542 66.8595 59.4928 66.4752 59.5936C65.9242 59.7391 65.3495 59.8119 64.8083 59.9105Z" fill="#C4C4C4"/>
</g>
<defs>
<clipPath id="clip0_7_76">
<rect width="197" height="86" fill="white"/>
</clipPath>
</defs>
</svg>
