<svg width="151" height="150" viewBox="0 0 151 150" fill="none" xmlns="http://www.w3.org/2000/svg">
<g clip-path="url(#clip0_5_209)">
<path d="M119.737 33.075C119.859 32.8909 119.915 32.6717 119.898 32.4519C119.881 32.2322 119.791 32.0244 119.643 31.8612C119.495 31.698 119.296 31.5887 119.079 31.5505C118.862 31.5122 118.639 31.5473 118.444 31.65C111.019 35.5125 91.425 46.875 66.4875 69.75C57.7312 77.7751 56.2687 83.0813 56.2687 83.0813C57.1601 85.3012 58.4288 87.3502 60.0187 89.1376C61.8937 90.7126 64.425 92.8875 67.0312 93.1125C70.6125 93.4125 78.7312 85.0313 81.5062 82.0875C95.5957 66.8458 108.384 50.451 119.737 33.075Z" fill="white"/>
<path d="M24.7312 114.019C24.4637 113.929 24.2269 113.766 24.0481 113.547C23.8693 113.329 23.7557 113.064 23.7205 112.784C23.6852 112.504 23.7297 112.22 23.8488 111.964C23.9679 111.708 24.1568 111.491 24.3937 111.338C27.0544 109.604 29.5134 107.579 31.725 105.3C34.0312 102.431 36.1687 92.8314 41.1937 88.9689C44.7899 86.5268 49.0165 85.1787 53.3625 85.0876C54.4178 87.139 55.6276 89.1072 56.9812 90.9751C58.7955 92.5097 60.8229 93.7729 63 94.7251C63 94.7251 62.25 109.031 51.9375 114.75C43.9875 119.119 30.6375 115.838 24.7312 114.019Z" fill="white"/>
<path d="M125.025 5.625C130.16 5.62996 135.084 7.67219 138.715 11.3035C142.347 14.9347 144.389 19.8584 144.394 24.9937V125.006C144.389 130.142 142.347 135.065 138.715 138.697C135.084 142.328 130.16 144.37 125.025 144.375H24.9937C19.8616 144.365 14.9428 142.321 11.3156 138.69C7.68834 135.059 5.64869 130.138 5.64374 125.006V24.9937C5.64869 19.8616 7.68834 14.9408 11.3156 11.3101C14.9428 7.67934 19.8616 5.63492 24.9937 5.625H125.025ZM125.025 0H24.9937C18.3682 0.00497037 12.0158 2.64043 7.33261 7.32713C2.64942 12.0138 0.0187359 18.3682 0.0187378 24.9937L0.0187378 125.006C0.0187359 131.632 2.64942 137.986 7.33261 142.673C12.0158 147.36 18.3682 149.995 24.9937 150H125.025C131.654 150 138.011 147.367 142.698 142.68C147.385 137.992 150.019 131.635 150.019 125.006V24.9937C150.019 18.365 147.385 12.0077 142.698 7.3205C138.011 2.63326 131.654 0 125.025 0V0Z" fill="white"/>
</g>
<defs>
<clipPath id="clip0_5_209">
<rect width="150.019" height="150" fill="white"/>
</clipPath>
</defs>
</svg>
