<svg width="150" height="150" viewBox="0 0 150 150" fill="none" xmlns="http://www.w3.org/2000/svg">
<g clip-path="url(#clip0_5_215)">
<path d="M125.006 5.62511C130.142 5.62899 135.066 7.67084 138.698 11.3023C142.329 14.9338 144.371 19.858 144.375 24.9937V125.006C144.371 130.142 142.329 135.066 138.698 138.698C135.066 142.329 130.142 144.371 125.006 144.375H24.9761C19.8437 144.366 14.9244 142.321 11.2969 138.691C7.66944 135.06 5.62976 130.139 5.62511 125.006V24.9937C5.62976 19.8613 7.66944 14.9402 11.2969 11.3094C14.9244 7.67857 19.8437 5.63442 24.9761 5.62511H125.006ZM125.006 1.71768e-07H24.9761C18.3501 0.00465973 11.9971 2.63988 7.31322 7.32651C2.62934 12.0131 -0.00215473 18.3677 -0.00292969 24.9937L-0.00292969 125.006C-0.00293133 131.633 2.62822 137.988 7.31218 142.675C11.9962 147.363 18.3496 149.998 24.9761 150.003H125.006C128.289 150.003 131.539 149.357 134.572 148.101C137.605 146.845 140.36 145.004 142.681 142.682C145.002 140.361 146.843 137.605 148.099 134.572C149.355 131.539 150.001 128.289 150 125.006V24.9937C150 21.7113 149.354 18.4611 148.098 15.4285C146.842 12.396 145.001 9.64056 142.68 7.31961C140.359 4.99866 137.604 3.15766 134.571 1.90174C131.539 0.645833 128.289 -0.000384648 125.006 1.71768e-07V1.71768e-07Z" fill="white"/>
<path d="M65.2659 41.5437H39.2556V106.517H51.9532V85.4225H66.4642C66.4642 85.4225 85.4079 82.8033 85.4079 63.8596C85.4079 44.9158 65.2659 41.5437 65.2659 41.5437ZM62.1545 74.0316H52.1231V53.4678H62.345C62.345 53.4678 72.186 54.8477 72.186 64.2346C72.186 73.6215 62.1545 74.0316 62.1545 74.0316Z" fill="white"/>
<path d="M107.519 106.517H93.4149V57.2764H106.672V63.7511C106.672 63.7511 111.149 58.8438 115.271 57.6778C117.87 56.9832 120.587 56.8464 123.243 57.2764V69.6809C123.243 69.6809 117.061 69.4114 114.286 70.5774C111.512 71.7435 107.747 74.0316 107.747 74.0316L107.519 106.517Z" fill="white"/>
</g>
<defs>
<clipPath id="clip0_5_215">
<rect width="150" height="150" fill="white"/>
</clipPath>
</defs>
</svg>
