<svg width="151" height="150" viewBox="0 0 151 150" fill="none" xmlns="http://www.w3.org/2000/svg">
<g clip-path="url(#clip0_5_220)">
<path d="M62.4 40.7251H35.6438C35.6438 40.7251 35.8688 107.138 35.8688 107.25H49.0875V85.6501H62.5125C62.5125 85.6501 83.4563 84.2439 83.4563 63.5063C83.4563 42.7688 62.4 40.7251 62.4 40.7251ZM59.175 74.3626L49.275 74.1376V52.6501H59.0625C59.0625 52.6501 69.375 52.8563 69.375 63.2814C69.375 73.7064 59.175 74.3626 59.175 74.3626Z" fill="white"/>
<path d="M124.837 70.5001V58.4626C123.283 57.6246 121.625 56.9942 119.906 56.5876C118.387 56.4938 103.556 56.5876 103.556 56.5876C103.556 56.5876 90.5625 58.6313 90.5625 71.7563C90.5625 84.8813 110.756 90.0001 110.756 90.0001C110.756 90.0001 113.344 91.6126 113.344 93.3376C113.344 95.0626 113.119 97.0876 104.737 97.0876C99.6691 97.0692 94.6976 95.6969 90.3375 93.1126V105.675C93.4753 106.743 96.6672 107.644 99.9 108.375L112.706 108.469C112.706 108.469 127.275 104.606 127.425 93.6376C127.631 78.3751 105.487 73.6501 105.487 73.6501C104.872 73.4501 104.335 73.0621 103.951 72.5408C103.568 72.0194 103.358 71.3909 103.35 70.7438C103.45 69.8684 103.844 69.0526 104.467 68.4296C105.09 67.8065 105.906 67.4128 106.781 67.3126C107.531 67.4251 116.025 67.3126 116.025 67.3126L124.837 70.5001Z" fill="white"/>
<path d="M125.025 5.625C130.16 5.62996 135.084 7.67219 138.715 11.3035C142.347 14.9347 144.389 19.8584 144.394 24.9937V125.006C144.389 130.142 142.347 135.065 138.715 138.697C135.084 142.328 130.16 144.37 125.025 144.375H24.9938C19.8616 144.365 14.9428 142.321 11.3156 138.69C7.68836 135.059 5.64871 130.138 5.64375 125.006V24.9937C5.64871 19.8616 7.68836 14.9408 11.3156 11.3101C14.9428 7.67934 19.8616 5.63492 24.9938 5.625H125.025ZM125.025 0H24.9938C18.3682 0.00497037 12.0158 2.64043 7.33262 7.32713C2.64944 12.0138 0.0187512 18.3682 0.0187531 24.9937L0.0187531 125.006C0.0187512 131.632 2.64944 137.986 7.33262 142.673C12.0158 147.36 18.3682 149.995 24.9938 150H125.025C131.654 150 138.011 147.367 142.698 142.68C147.385 137.992 150.019 131.635 150.019 125.006V24.9937C150.019 18.365 147.385 12.0077 142.698 7.3205C138.011 2.63326 131.654 0 125.025 0V0Z" fill="white"/>
</g>
<defs>
<clipPath id="clip0_5_220">
<rect width="150.019" height="150" fill="white"/>
</clipPath>
</defs>
</svg>
